<svg xmlns="http://www.w3.org/2000/svg" viewBox="0 0 512 512">
  <defs>
    <linearGradient id="bg" x1="0%" y1="0%" x2="100%" y2="100%">
      <stop offset="0%" stop-color="#60a5fa"/>
      <stop offset="100%" stop-color="#1e40af"/>
    </linearGradient>
    <linearGradient id="cube" x1="0%" y1="0%" x2="0%" y2="100%">
      <stop offset="0%" stop-color="#ffffff"/>
      <stop offset="100%" stop-color="#dbeafe"/>
    </linearGradient>
  </defs>
  <rect width="512" height="512" rx="112" fill="url(#bg)"/>
  <g transform="translate(100 116)">
    <g fill="url(#cube)" filter="drop-shadow(0 12px 24px rgba(0,0,0,0.22))">
      <rect x="0"   y="0"   width="86" height="86" rx="16"/>
      <rect x="113" y="0"   width="86" height="86" rx="16"/>
      <rect x="226" y="0"   width="86" height="86" rx="16"/>
      <rect x="0"   y="113" width="86" height="86" rx="16"/>
      <rect x="113" y="113" width="86" height="86" rx="16" opacity="0.95"/>
      <rect x="226" y="113" width="86" height="86" rx="16"/>
      <rect x="0"   y="226" width="86" height="86" rx="16"/>
      <rect x="113" y="226" width="86" height="86" rx="16"/>
      <rect x="226" y="226" width="86" height="86" rx="16"/>
    </g>
    <rect x="113" y="113" width="86" height="86" rx="16" fill="none" stroke="#93c5fd" stroke-width="4" opacity="0.7"/>
  </g>
</svg>
